<svg width="165" height="157" viewBox="0 0 165 157" fill="none" xmlns="http://www.w3.org/2000/svg">
<path d="M132.814 156.953C132.814 156.953 109.854 156.953 81.532 156.953H30.25C37.9423 148.391 53.2098 135.73 81.532 135.73C106.66 135.73 125.122 148.391 132.814 156.953Z" fill="black"/>
<path d="M132.814 156.953C132.814 156.953 109.854 156.953 81.532 156.953H30.25C37.9423 148.391 53.2098 135.73 81.532 135.73C106.66 135.73 125.122 148.391 132.814 156.953Z" fill="black"/>
<path d="M81.5312 154.981L81.5313 6.91192" stroke="black" stroke-width="4" stroke-linecap="round"/>
<path d="M137.384 31.588L28.666 31.588" stroke="black" stroke-width="4" stroke-linecap="round"/>
<path d="M88.7105 6.90987C88.7105 10.7261 85.4962 13.8197 81.531 13.8197C77.5659 13.8197 74.3516 10.7261 74.3516 6.90987C74.3516 3.09365 77.5659 0 81.531 0C85.4962 0 88.7105 3.09365 88.7105 6.90987Z" fill="black"/>
<path d="M3.61535 107.597C3.61535 107.597 16.4344 107.597 32.2476 107.597H60.9374C61.6668 108.189 51.6456 122.403 32.2476 122.403C13.7659 122.403 2.49355 108.189 3.61535 107.597Z" fill="black"/>
<path d="M3.61535 107.597C3.61535 107.597 16.4344 107.597 32.2476 107.597H60.9374C61.6668 108.189 51.6456 122.403 32.2476 122.403C13.7659 122.403 2.49355 108.189 3.61535 107.597Z" fill="black"/>
<path d="M32.1879 31.5753L3.91143 107.632" stroke="black"/>
<path d="M31.5401 31.3531L60.5178 107.714" stroke="black"/>
<path d="M32.3874 104.14L32.3874 104.14L39.995 100.07L47.4731 96.0684C48.078 95.7447 48.078 94.8209 47.4731 94.4973L39.995 90.496L32.3874 86.4255L32.3874 86.4255C32.1563 86.3018 31.8844 86.3018 31.6533 86.4255L31.9772 87.1186L31.6533 86.4255L24.0457 90.496L16.5676 94.4973C15.9627 94.8209 15.9627 95.7447 16.5676 96.0684L31.6533 104.14L31.9772 103.447L31.6533 104.14C31.8844 104.264 32.1563 104.264 32.3874 104.14ZM46.8254 94.6821L46.8243 94.6827C46.8246 94.6825 46.825 94.6823 46.8254 94.6821L46.8254 94.6821ZM46.8243 95.883L46.8254 95.8836L46.8254 95.8836C46.825 95.8834 46.8246 95.8832 46.8243 95.883Z" fill="white" stroke="#FF6058" stroke-width="1.5" stroke-miterlimit="16" stroke-linejoin="round"/>
<path d="M32.3874 99.5349L32.3874 99.5349L39.995 95.4643L47.4731 91.4631C48.078 91.1394 48.078 90.2156 47.4731 89.8919L39.995 85.8907L32.3874 81.8201L32.3874 81.8201C32.1563 81.6965 31.8844 81.6965 31.6533 81.8201L31.9772 82.5133L31.6533 81.8201L24.0457 85.8907L16.5676 89.8919C15.9627 90.2156 15.9627 91.1394 16.5676 91.4631L31.6533 99.5349L31.9772 98.8417L31.6533 99.5349C31.8844 99.6585 32.1563 99.6585 32.3874 99.5349ZM46.8254 90.0768L46.8243 90.0774C46.8246 90.0772 46.825 90.077 46.8254 90.0768L46.8254 90.0768ZM46.8243 91.2776L46.8254 91.2782L46.8254 91.2782C46.825 91.278 46.8246 91.2778 46.8243 91.2776Z" fill="white" stroke="#FF6058" stroke-width="1.5" stroke-miterlimit="16" stroke-linejoin="round"/>
<path d="M32.3874 94.9295L32.3874 94.9295L39.995 90.859L47.4731 86.8577C48.078 86.5341 48.078 85.6102 47.4731 85.2866L39.995 81.2853L32.3874 77.2148L32.3874 77.2148C32.1563 77.0912 31.8844 77.0911 31.6533 77.2148L31.9772 77.9079L31.6533 77.2148L24.0457 81.2853L16.5676 85.2866C15.9627 85.6103 15.9627 86.534 16.5676 86.8577L31.6533 94.9295L31.9772 94.2364L31.6533 94.9295C31.8844 95.0531 32.1563 95.0531 32.3874 94.9295ZM46.8254 85.4714L46.8243 85.472C46.8246 85.4718 46.825 85.4716 46.8254 85.4714L46.8254 85.4714ZM46.8243 86.6723L46.8254 86.6729L46.8254 86.6729C46.825 86.6727 46.8246 86.6725 46.8243 86.6723Z" fill="white" stroke="#FF6058" stroke-width="1.5" stroke-miterlimit="16" stroke-linejoin="round"/>
<path d="M104.132 107.597C104.132 107.597 117.638 107.597 134.298 107.597H164.525C165.294 108.189 154.736 122.403 134.298 122.403C114.827 122.403 102.95 108.189 104.132 107.597Z" fill="black"/>
<path d="M104.132 107.597C104.132 107.597 117.638 107.597 134.298 107.597H164.525C165.294 108.189 154.736 122.403 134.298 122.403C114.827 122.403 102.95 108.189 104.132 107.597Z" fill="black"/>
<path d="M134.315 31.5753L104.601 107.632" stroke="black"/>
<path d="M133.635 31.3531L164.086 107.714" stroke="black"/>
<rect width="4.34816" height="22.4655" transform="matrix(-0.73109 -0.682281 0.73109 -0.682281 124.119 97.7043)" fill="#3B869F"/>
<path d="M119.269 89.4587L126.954 95.0589L120.219 101.463L119.269 89.4587Z" fill="#3B869F"/>
<rect width="4.34816" height="23.9447" transform="matrix(0.73109 0.682281 -0.73109 0.682281 143.893 82.4662)" fill="#3B869F"/>
<path d="M148.342 90.9882L140.721 85.3626L147.366 78.97L148.342 90.9882Z" fill="#3B869F"/>
</svg>
