<svg width="1389" height="1002" viewBox="0 0 1389 1002" fill="none" xmlns="http://www.w3.org/2000/svg">
<path d="M1127.92 1002C1127.92 1002 933.63 1002 693.96 1002H260C325.094 934.627 454.291 835 693.96 835C906.601 835 1062.83 934.627 1127.92 1002Z" fill="black"/>
<path d="M1127.92 1002C1127.92 1002 933.63 1002 693.96 1002H260C325.094 934.627 454.291 835 693.96 835C906.601 835 1062.83 934.627 1127.92 1002Z" fill="black"/>
<path d="M694.039 986.093L694.039 17" stroke="black" stroke-width="15" stroke-linecap="round"/>
<path d="M1158.67 15.5479L238.678 15.5479" stroke="black" stroke-width="15" stroke-linecap="round"/>
<path d="M26.6891 613.623C26.6891 613.623 135.167 613.623 268.981 613.623H511.762C517.934 618.283 433.132 730.132 268.981 730.132C112.586 730.132 17.1962 618.283 26.6891 613.623Z" fill="black"/>
<path d="M26.6891 613.623C26.6891 613.623 135.167 613.623 268.981 613.623H511.762C517.934 618.283 433.132 730.132 268.981 730.132C112.586 730.132 17.1962 618.283 26.6891 613.623Z" fill="black"/>
<path d="M268.482 15.435L29.2005 613.897" stroke="black"/>
<path d="M262.998 13.6864L508.215 614.543" stroke="black"/>
<path d="M877.286 613.623C877.286 613.623 991.575 613.623 1132.56 613.623H1388.34C1394.85 618.283 1305.5 730.132 1132.56 730.132C967.784 730.132 867.284 618.283 877.286 613.623Z" fill="black"/>
<path d="M877.286 613.623C877.286 613.623 991.575 613.623 1132.56 613.623H1388.34C1394.85 618.283 1305.5 730.132 1132.56 730.132C967.784 730.132 867.284 618.283 877.286 613.623Z" fill="black"/>
<path d="M1132.7 15.4428L881.248 613.905" stroke="black"/>
<path d="M1126.94 13.6952L1384.62 614.551" stroke="black"/>
</svg>
