<svg width="165" height="157" viewBox="0 0 165 157" fill="none" xmlns="http://www.w3.org/2000/svg">
<path d="M132.814 156.953C132.814 156.953 109.854 156.953 81.532 156.953H30.25C37.9423 148.391 53.2098 135.729 81.532 135.729C106.66 135.729 125.122 148.391 132.814 156.953Z" fill="white"/>
<path d="M132.814 156.953C132.814 156.953 109.854 156.953 81.532 156.953H30.25C37.9423 148.391 53.2098 135.729 81.532 135.729C106.66 135.729 125.122 148.391 132.814 156.953Z" fill="white"/>
<path d="M81.5312 154.98L81.5313 6.91179" stroke="white" stroke-width="4" stroke-linecap="round"/>
<path d="M137.384 31.5879L28.666 31.5879" stroke="white" stroke-width="4" stroke-linecap="round"/>
<path d="M88.7105 6.90987C88.7105 10.7261 85.4962 13.8197 81.531 13.8197C77.5659 13.8197 74.3516 10.7261 74.3516 6.90987C74.3516 3.09365 77.5659 0 81.531 0C85.4962 0 88.7105 3.09365 88.7105 6.90987Z" fill="white"/>
<path d="M3.61535 107.596C3.61535 107.596 16.4344 107.596 32.2476 107.596H60.9374C61.6668 108.189 51.6456 122.403 32.2476 122.403C13.7659 122.403 2.49355 108.189 3.61535 107.596Z" fill="white"/>
<path d="M3.61535 107.596C3.61535 107.596 16.4344 107.596 32.2476 107.596H60.9374C61.6668 108.189 51.6456 122.403 32.2476 122.403C13.7659 122.403 2.49355 108.189 3.61535 107.596Z" fill="white"/>
<path d="M32.1879 31.5748L3.91143 107.632" stroke="white"/>
<path d="M31.5401 31.3527L60.5178 107.714" stroke="white"/>
<path d="M32.3874 104.14L32.3874 104.14L39.995 100.069L47.4731 96.0678C48.078 95.7441 48.078 94.8203 47.4731 94.4967L39.995 90.4954L32.3874 86.4249L32.3874 86.4248C32.1563 86.3012 31.8844 86.3012 31.6533 86.4249L31.9772 87.118L31.6533 86.4249L24.0457 90.4954L16.5676 94.4967C15.9627 94.8203 15.9627 95.7441 16.5676 96.0678L31.6533 104.14L31.9772 103.446L31.6533 104.14C31.8844 104.263 32.1563 104.263 32.3874 104.14ZM46.8254 94.6815L46.8243 94.6821C46.8246 94.6819 46.825 94.6817 46.8254 94.6815L46.8254 94.6815ZM46.8243 95.8824L46.8254 95.883L46.8254 95.883C46.825 95.8828 46.8246 95.8826 46.8243 95.8824Z" fill="#216278" stroke="#FF8882" stroke-width="1.5" stroke-miterlimit="16" stroke-linejoin="round"/>
<path d="M32.3874 99.5351L32.3874 99.5351L39.995 95.4645L47.4731 91.4633C48.078 91.1396 48.078 90.2158 47.4731 89.8922L39.995 85.8909L32.3874 81.8204L32.3874 81.8204C32.1563 81.6967 31.8844 81.6967 31.6533 81.8204L31.9772 82.5135L31.6533 81.8204L24.0457 85.8909L16.5676 89.8922C15.9627 90.2158 15.9627 91.1396 16.5676 91.4633L31.6533 99.5351L31.9772 98.842L31.6533 99.5351C31.8844 99.6587 32.1563 99.6587 32.3874 99.5351ZM46.8254 90.077L46.8243 90.0776C46.8246 90.0774 46.825 90.0772 46.8254 90.077L46.8254 90.077ZM46.8243 91.2779L46.8254 91.2785L46.8254 91.2785C46.825 91.2783 46.8246 91.2781 46.8243 91.2779Z" fill="#216278" stroke="#FF8882" stroke-width="1.5" stroke-miterlimit="16" stroke-linejoin="round"/>
<path d="M32.3874 94.9296L32.3874 94.9296L39.995 90.8591L47.4731 86.8578C48.078 86.5342 48.078 85.6104 47.4731 85.2867L39.995 81.2855L32.3874 77.2149L32.3874 77.2149C32.1563 77.0913 31.8844 77.0913 31.6533 77.2149L31.9772 77.908L31.6533 77.2149L24.0457 81.2855L16.5676 85.2867C15.9627 85.6104 15.9627 86.5342 16.5676 86.8578L31.6533 94.9296L31.9772 94.2365L31.6533 94.9296C31.8844 95.0533 32.1563 95.0533 32.3874 94.9296ZM46.8254 85.4715L46.8243 85.4721C46.8246 85.4719 46.825 85.4717 46.8254 85.4715L46.8254 85.4715ZM46.8243 86.6724L46.8254 86.673L46.8254 86.673C46.825 86.6728 46.8246 86.6726 46.8243 86.6724Z" fill="#216278" stroke="#FF8882" stroke-width="1.5" stroke-miterlimit="16" stroke-linejoin="round"/>
<path d="M104.132 107.596C104.132 107.596 117.638 107.596 134.298 107.596H164.525C165.294 108.189 154.736 122.403 134.298 122.403C114.827 122.403 102.95 108.189 104.132 107.596Z" fill="white"/>
<path d="M104.132 107.596C104.132 107.596 117.638 107.596 134.298 107.596H164.525C165.294 108.189 154.736 122.403 134.298 122.403C114.827 122.403 102.95 108.189 104.132 107.596Z" fill="white"/>
<path d="M134.315 31.5748L104.601 107.632" stroke="white"/>
<path d="M133.635 31.3527L164.086 107.714" stroke="white"/>
<rect width="4.34816" height="22.4655" transform="matrix(-0.73109 -0.682281 0.73109 -0.682281 124.119 97.7041)" fill="#6DB7CF"/>
<path d="M119.269 89.4586L126.954 95.0587L120.219 101.462L119.269 89.4586Z" fill="#6DB7CF"/>
<rect width="4.34816" height="23.9447" transform="matrix(0.73109 0.682281 -0.73109 0.682281 143.893 82.4658)" fill="#6DB7CF"/>
<path d="M148.342 90.9881L140.721 85.3625L147.366 78.9699L148.342 90.9881Z" fill="#6DB7CF"/>
</svg>
